<svg width="857" height="230" viewBox="0 0 857 230" fill="none" xmlns="http://www.w3.org/2000/svg">
<g filter="url(#filter0_i_134_13)">
<path d="M2.74 1.2H37.36V45H28.96V7.98H11.14V45H2.74V1.2ZM55.1411 29.46V45H46.8611V1.5C51.0211 0.899999 55.4211 0.599999 60.0611 0.599999C66.0611 0.599999 70.5611 1.8 73.5611 4.2C76.5611 6.56 78.0611 10 78.0611 14.52C78.0611 19.52 76.6011 23.3 73.6811 25.86C70.8011 28.42 66.5211 29.7 60.8411 29.7C58.5211 29.7 56.6211 29.62 55.1411 29.46ZM55.1411 22.98C56.6611 23.22 58.3011 23.34 60.0611 23.34C63.3011 23.34 65.7611 22.64 67.4411 21.24C69.1611 19.8 70.0211 17.76 70.0211 15.12C70.0211 9.8 66.7011 7.14 60.0611 7.14C58.2611 7.14 56.6211 7.26 55.1411 7.5V22.98ZM95.2769 28.02H106.917L101.157 8.58H101.037L95.2769 28.02ZM93.4169 34.44L90.2369 45H81.5369L96.7169 1.2H105.717L120.957 45H111.957L108.837 34.44H93.4169ZM135.828 1.2V20.22H135.948L151.248 1.2H161.028L143.628 22.2L161.628 45H151.848L135.948 24.18H135.828V45H127.428V1.2H135.828ZM200.192 1.2V8.16H187.652V45H179.132V8.16H166.592V1.2H200.192ZM242.79 45H234.57V15.18H234.45L216.39 45H208.17V1.2H216.39V31.02H216.51L234.57 1.2H242.79V45ZM275.271 29.7C273.071 30.9 270.471 31.5 267.471 31.5C261.871 31.5 257.831 30.34 255.351 28.02C252.911 25.7 251.691 21.9 251.691 16.62V1.2H259.911V15.6C259.911 19.08 260.531 21.44 261.771 22.68C263.051 23.88 265.491 24.48 269.091 24.48C271.451 24.48 273.511 23.92 275.271 22.8V1.2H283.671V45H275.271V29.7ZM319.351 25.14H301.531V45H293.131V1.2H301.531V18.72H319.351V1.2H327.751V45H319.351V25.14ZM372.652 45V1.2H381.052V45H372.652ZM337.252 1.2H345.532V17.7C347.172 17.46 348.972 17.34 350.932 17.34C356.412 17.34 360.572 18.52 363.412 20.88C366.252 23.2 367.672 26.54 367.672 30.9C367.672 35.94 366.232 39.66 363.352 42.06C360.472 44.42 355.912 45.6 349.672 45.6C345.472 45.6 341.332 45.28 337.252 44.64V1.2ZM345.532 23.94V38.58C347.012 38.9 348.552 39.06 350.152 39.06C356.632 39.06 359.872 36.36 359.872 30.96C359.872 26.04 356.632 23.58 350.152 23.58C348.472 23.58 346.932 23.7 345.532 23.94ZM398.913 7.98V18.72H416.493V25.14H398.913V38.22H417.693V45H390.513V1.2H417.693V7.98H398.913ZM479.391 45H471.171V15.18H471.051L452.991 45H444.771V1.2H452.991V31.02H453.111L471.171 1.2H479.391V45ZM533.335 25.14H515.515V45H507.115V1.2H515.515V18.72H533.335V1.2H541.735V45H533.335V25.14ZM561.976 28.02H573.616L567.856 8.58H567.736L561.976 28.02ZM560.116 34.44L556.936 45H548.236L563.416 1.2H572.416L587.656 45H578.656L575.536 34.44H560.116ZM604.087 38.22H619.207V7.98H608.827C608.827 14.94 608.707 20.04 608.467 23.28C608.227 26.52 607.807 29.14 607.207 31.14C606.647 33.14 605.607 35.5 604.087 38.22ZM594.907 38.22C596.667 35.62 597.907 33.32 598.627 31.32C599.387 29.28 599.927 26.58 600.247 23.22C600.567 19.82 600.727 14.74 600.727 7.98V1.2H627.547V38.22H632.707V54.6H625.027V45H599.407V54.6H591.727V38.22H594.907ZM648.171 7.98V18.72H665.751V25.14H648.171V38.22H666.951V45H639.771V1.2H666.951V7.98H648.171ZM716.426 45L706.286 25.56H703.286V45H695.126V25.56H692.126L681.986 45H673.106L685.526 22.14L673.526 1.2H682.166L692.126 18.72H695.126V1.2H703.286V18.72H706.286L716.246 1.2H724.886L712.886 22.14L725.306 45H716.426ZM758.335 25.14H740.515V45H732.115V1.2H740.515V18.72H758.335V1.2H766.735V45H758.335V25.14ZM811.636 45V1.2H820.036V45H811.636ZM776.236 1.2H784.516V17.7C786.156 17.46 787.956 17.34 789.916 17.34C795.396 17.34 799.556 18.52 802.396 20.88C805.236 23.2 806.656 26.54 806.656 30.9C806.656 35.94 805.216 39.66 802.336 42.06C799.456 44.42 794.896 45.6 788.656 45.6C784.456 45.6 780.316 45.28 776.236 44.64V1.2ZM784.516 23.94V38.58C785.996 38.9 787.536 39.06 789.136 39.06C795.616 39.06 798.856 36.36 798.856 30.96C798.856 26.04 795.616 23.58 789.136 23.58C787.456 23.58 785.916 23.7 784.516 23.94ZM837.898 7.98V18.72H855.478V25.14H837.898V38.22H856.678V45H829.498V1.2H856.678V7.98H837.898ZM2.74 90.2H37.36V134H28.96V96.98H11.14V134H2.74V90.2ZM82.0811 134H73.6811V96.98H60.9611V112.7C60.9611 118.34 60.4011 122.68 59.2811 125.72C58.1611 128.76 56.4211 130.92 54.0611 132.2C51.7011 133.48 48.2611 134.28 43.7411 134.6L43.2611 128C45.8211 127.84 47.7011 127.4 48.9011 126.68C50.1411 125.92 51.0611 124.5 51.6611 122.42C52.2611 120.3 52.5611 117.1 52.5611 112.82V90.2H82.0811V134ZM102.308 117.02H113.948L108.188 97.58H108.068L102.308 117.02ZM100.448 123.44L97.2681 134H88.5681L103.748 90.2H112.748L127.988 134H118.988L115.868 123.44H100.448ZM154.379 134.6C147.539 134.6 142.059 132.58 137.939 128.54C133.819 124.46 131.759 118.98 131.759 112.1C131.759 105.18 133.779 99.7 137.819 95.66C141.859 91.62 147.379 89.6 154.379 89.6C159.659 89.6 164.319 90.9 168.359 93.5L165.839 99.68C162.359 97.48 158.799 96.38 155.159 96.38C150.639 96.38 147.039 97.8 144.359 100.64C141.679 103.44 140.339 107.26 140.339 112.1C140.339 116.9 141.719 120.72 144.479 123.56C147.239 126.4 150.799 127.82 155.159 127.82C158.799 127.82 162.359 126.72 165.839 124.52L168.359 130.7C164.319 133.3 159.659 134.6 154.379 134.6ZM208.746 90.2V97.16H196.206V134H187.686V97.16H175.146V90.2H208.746ZM251.344 134H243.124V104.18H243.004L224.944 134H216.724V90.2H224.944V120.02H225.064L243.124 90.2H251.344V134ZM269.245 90.2V109.22H269.365L284.665 90.2H294.445L277.045 111.2L295.045 134H285.265L269.365 113.18H269.245V134H260.845V90.2H269.245ZM304.75 95.72C308.75 91.64 314.07 89.6 320.71 89.6C327.35 89.6 332.65 91.64 336.61 95.72C340.61 99.76 342.61 105.22 342.61 112.1C342.61 118.98 340.61 124.46 336.61 128.54C332.65 132.58 327.35 134.6 320.71 134.6C314.07 134.6 308.75 132.58 304.75 128.54C300.79 124.46 298.81 118.98 298.81 112.1C298.81 105.22 300.79 99.76 304.75 95.72ZM310.99 123.62C313.39 126.34 316.63 127.7 320.71 127.7C324.79 127.7 328.03 126.34 330.43 123.62C332.83 120.86 334.03 117.02 334.03 112.1C334.03 107.18 332.83 103.36 330.43 100.64C328.03 97.88 324.79 96.5 320.71 96.5C316.63 96.5 313.39 97.88 310.99 100.64C308.59 103.36 307.39 107.18 307.39 112.1C307.39 117.02 308.59 120.86 310.99 123.62ZM357.661 107.84H359.881C363.601 107.84 366.281 107.34 367.921 106.34C369.601 105.3 370.441 103.78 370.441 101.78C370.441 99.86 369.761 98.44 368.401 97.52C367.081 96.6 364.881 96.14 361.801 96.14C360.281 96.14 358.901 96.26 357.661 96.5V107.84ZM357.661 114.08V127.7C359.061 127.94 360.561 128.06 362.161 128.06C365.481 128.06 367.901 127.46 369.421 126.26C370.981 125.02 371.761 123.14 371.761 120.62C371.761 118.38 370.881 116.74 369.121 115.7C367.361 114.62 364.421 114.08 360.301 114.08H357.661ZM379.801 121.4C379.801 125.8 378.361 129.1 375.481 131.3C372.601 133.5 368.101 134.6 361.981 134.6C357.541 134.6 353.341 134.3 349.381 133.7V90.5C353.141 89.9 357.141 89.6 361.381 89.6C372.581 89.6 378.181 93.26 378.181 100.58C378.181 103.06 377.361 105.2 375.721 107C374.081 108.76 371.901 109.9 369.181 110.42V110.54C372.461 110.98 375.041 112.2 376.921 114.2C378.841 116.16 379.801 118.56 379.801 121.4ZM421.988 134V90.2H430.388V134H421.988ZM386.588 90.2H394.868V106.7C396.508 106.46 398.308 106.34 400.268 106.34C405.748 106.34 409.908 107.52 412.748 109.88C415.588 112.2 417.008 115.54 417.008 119.9C417.008 124.94 415.568 128.66 412.688 131.06C409.808 133.42 405.248 134.6 399.008 134.6C394.808 134.6 390.668 134.28 386.588 133.64V90.2ZM394.868 112.94V127.58C396.348 127.9 397.888 128.06 399.488 128.06C405.968 128.06 409.208 125.36 409.208 119.96C409.208 115.04 405.968 112.58 399.488 112.58C397.808 112.58 396.268 112.7 394.868 112.94ZM448.249 96.98V107.72H465.829V114.14H448.249V127.22H467.029V134H439.849V90.2H467.029V96.98H448.249ZM6.512 188.168C10.7787 183.816 16.4533 181.64 23.536 181.64C30.6187 181.64 36.272 183.816 40.496 188.168C44.7627 192.477 46.896 198.301 46.896 205.64C46.896 212.979 44.7627 218.824 40.496 223.176C36.272 227.485 30.6187 229.64 23.536 229.64C16.4533 229.64 10.7787 227.485 6.512 223.176C2.288 218.824 0.176 212.979 0.176 205.64C0.176 198.301 2.288 192.477 6.512 188.168ZM13.168 217.928C15.728 220.829 19.184 222.28 23.536 222.28C27.888 222.28 31.344 220.829 33.904 217.928C36.464 214.984 37.744 210.888 37.744 205.64C37.744 200.392 36.464 196.317 33.904 193.416C31.344 190.472 27.888 189 23.536 189C19.184 189 15.728 190.472 13.168 193.416C10.608 196.317 9.328 200.392 9.328 205.64C9.328 210.888 10.608 214.984 13.168 217.928ZM63.0785 182.28V202.568H63.2065L79.5265 182.28H89.9585L71.3985 204.68L90.5985 229H80.1665L63.2065 206.792H63.0785V229H54.1185V182.28H63.0785ZM125.462 207.816H106.454V229H97.4935V182.28H106.454V200.968H125.462V182.28H134.422V229H125.462V207.816ZM156.012 210.888H168.428L162.284 190.152H162.156L156.012 210.888ZM154.028 217.736L150.636 229H141.356L157.548 182.28H167.148L183.404 229H173.804L170.476 217.736H154.028Z" fill="#4B84A7"/>
</g>
<defs>
<filter id="filter0_i_134_13" x="0.176025" y="0.599976" width="856.502" height="233.04" filterUnits="userSpaceOnUse" color-interpolation-filters="sRGB">
<feFlood flood-opacity="0" result="BackgroundImageFix"/>
<feBlend mode="normal" in="SourceGraphic" in2="BackgroundImageFix" result="shape"/>
<feColorMatrix in="SourceAlpha" type="matrix" values="0 0 0 0 0 0 0 0 0 0 0 0 0 0 0 0 0 0 127 0" result="hardAlpha"/>
<feOffset dy="4"/>
<feGaussianBlur stdDeviation="2"/>
<feComposite in2="hardAlpha" operator="arithmetic" k2="-1" k3="1"/>
<feColorMatrix type="matrix" values="0 0 0 0 0 0 0 0 0 0 0 0 0 0 0 0 0 0 0.25 0"/>
<feBlend mode="normal" in2="shape" result="effect1_innerShadow_134_13"/>
</filter>
</defs>
</svg>
