<svg width="554" height="149" viewBox="0 0 554 149" fill="none" xmlns="http://www.w3.org/2000/svg">
<rect width="554" height="149" rx="20" fill="#336281"/>
<path d="M34.8667 33.728C37.9067 33.728 40.4507 34.016 42.4987 34.592C44.5787 35.136 46.1307 36.048 47.1547 37.328C48.2107 38.576 48.7387 40.272 48.7387 42.416C48.7387 43.696 48.5307 44.864 48.1147 45.92C47.6987 46.976 47.0907 47.84 46.2907 48.512C45.5227 49.184 44.5787 49.616 43.4587 49.808V50.048C44.6107 50.272 45.6507 50.672 46.5787 51.248C47.5067 51.824 48.2427 52.656 48.7867 53.744C49.3307 54.832 49.6027 56.272 49.6027 58.064C49.6027 60.144 49.0907 61.936 48.0667 63.44C47.0747 64.912 45.6347 66.048 43.7467 66.848C41.8587 67.616 39.6187 68 37.0267 68H24.2107V33.728H34.8667ZM35.6827 47.312C37.7947 47.312 39.2507 46.976 40.0507 46.304C40.8827 45.632 41.2987 44.656 41.2987 43.376C41.2987 42.064 40.8187 41.12 39.8587 40.544C38.8987 39.968 37.3787 39.68 35.2987 39.68H31.4587V47.312H35.6827ZM31.4587 53.072V62H36.2107C38.3867 62 39.9067 61.584 40.7707 60.752C41.6347 59.888 42.0667 58.752 42.0667 57.344C42.0667 56.48 41.8747 55.728 41.4907 55.088C41.1387 54.448 40.5147 53.952 39.6187 53.6C38.7227 53.248 37.5067 53.072 35.9707 53.072H31.4587ZM56.4607 68V33.728H63.7087V46.88H66.0607C69.2287 46.88 71.8367 47.328 73.8847 48.224C75.9327 49.12 77.4367 50.352 78.3967 51.92C79.3887 53.488 79.8847 55.28 79.8847 57.296C79.8847 59.536 79.3887 61.456 78.3967 63.056C77.4047 64.656 75.8687 65.888 73.7887 66.752C71.7407 67.584 69.0847 68 65.8207 68H56.4607ZM65.6287 62.048C67.7727 62.048 69.4527 61.696 70.6687 60.992C71.9167 60.288 72.5407 59.056 72.5407 57.296C72.5407 56.08 72.2527 55.152 71.6767 54.512C71.1327 53.872 70.3167 53.44 69.2287 53.216C68.1407 52.96 66.8287 52.832 65.2927 52.832H63.7087V62.048H65.6287ZM84.0607 68V33.728H91.3087V68H84.0607ZM123.625 41.744C123.625 44.048 122.809 45.904 121.177 47.312C119.545 48.72 117.465 49.6 114.937 49.952V50.096C118.073 50.416 120.473 51.296 122.137 52.736C123.833 54.144 124.681 55.984 124.681 58.256C124.681 60.24 124.137 62.016 123.049 63.584C121.961 65.12 120.345 66.32 118.201 67.184C116.057 68.048 113.401 68.48 110.233 68.48C107.641 68.48 105.337 68.32 103.321 68C101.337 67.68 99.6086 67.216 98.1366 66.608V60.512C99.1286 60.992 100.249 61.408 101.497 61.76C102.745 62.08 104.009 62.336 105.289 62.528C106.569 62.688 107.753 62.768 108.841 62.768C111.881 62.768 114.073 62.336 115.417 61.472C116.793 60.576 117.481 59.328 117.481 57.728C117.481 56.096 116.489 54.912 114.505 54.176C112.521 53.408 109.849 53.024 106.489 53.024H103.273V47.36H106.153C108.873 47.36 110.985 47.184 112.489 46.832C113.993 46.48 115.049 45.968 115.657 45.296C116.265 44.624 116.569 43.824 116.569 42.896C116.569 41.712 116.041 40.784 114.985 40.112C113.961 39.408 112.409 39.056 110.329 39.056C108.569 39.056 106.905 39.312 105.337 39.824C103.801 40.336 102.361 41.008 101.017 41.84L97.8486 36.992C99.0326 36.224 100.281 35.568 101.593 35.024C102.937 34.448 104.409 34.016 106.009 33.728C107.609 33.408 109.385 33.248 111.337 33.248C113.929 33.248 116.137 33.616 117.961 34.352C119.785 35.088 121.177 36.096 122.137 37.376C123.129 38.624 123.625 40.08 123.625 41.744ZM162.19 50.816C162.19 53.472 161.854 55.888 161.182 58.064C160.542 60.208 159.55 62.064 158.206 63.632C156.894 65.2 155.198 66.4 153.118 67.232C151.07 68.064 148.654 68.48 145.87 68.48C143.086 68.48 140.654 68.064 138.574 67.232C136.526 66.368 134.83 65.168 133.486 63.632C132.174 62.064 131.182 60.192 130.51 58.016C129.87 55.84 129.55 53.424 129.55 50.768C129.55 47.216 130.126 44.128 131.278 41.504C132.462 38.88 134.254 36.848 136.654 35.408C139.086 33.936 142.174 33.2 145.918 33.2C149.63 33.2 152.686 33.936 155.086 35.408C157.486 36.848 159.262 38.896 160.414 41.552C161.598 44.176 162.19 47.264 162.19 50.816ZM137.182 50.816C137.182 53.216 137.486 55.28 138.094 57.008C138.702 58.736 139.646 60.064 140.926 60.992C142.206 61.92 143.854 62.384 145.87 62.384C147.95 62.384 149.614 61.92 150.862 60.992C152.142 60.064 153.07 58.736 153.646 57.008C154.254 55.28 154.558 53.216 154.558 50.816C154.558 47.2 153.886 44.368 152.542 42.32C151.198 40.272 148.99 39.248 145.918 39.248C143.87 39.248 142.206 39.712 140.926 40.64C139.646 41.568 138.702 42.896 138.094 44.624C137.486 46.352 137.182 48.416 137.182 50.816ZM179.945 33.728C182.985 33.728 185.529 34.016 187.577 34.592C189.657 35.136 191.209 36.048 192.233 37.328C193.289 38.576 193.817 40.272 193.817 42.416C193.817 43.696 193.609 44.864 193.193 45.92C192.777 46.976 192.169 47.84 191.369 48.512C190.601 49.184 189.657 49.616 188.537 49.808V50.048C189.689 50.272 190.729 50.672 191.657 51.248C192.585 51.824 193.321 52.656 193.865 53.744C194.409 54.832 194.681 56.272 194.681 58.064C194.681 60.144 194.169 61.936 193.145 63.44C192.153 64.912 190.713 66.048 188.825 66.848C186.937 67.616 184.697 68 182.105 68H169.289V33.728H179.945ZM180.761 47.312C182.873 47.312 184.329 46.976 185.129 46.304C185.961 45.632 186.377 44.656 186.377 43.376C186.377 42.064 185.897 41.12 184.937 40.544C183.977 39.968 182.457 39.68 180.377 39.68H176.537V47.312H180.761ZM176.537 53.072V62H181.289C183.465 62 184.985 61.584 185.849 60.752C186.713 59.888 187.145 58.752 187.145 57.344C187.145 56.48 186.953 55.728 186.569 55.088C186.217 54.448 185.593 53.952 184.697 53.6C183.801 53.248 182.585 53.072 181.049 53.072H176.537ZM237.156 41.744C237.156 44.048 236.34 45.904 234.708 47.312C233.076 48.72 230.996 49.6 228.468 49.952V50.096C231.604 50.416 234.004 51.296 235.668 52.736C237.364 54.144 238.212 55.984 238.212 58.256C238.212 60.24 237.668 62.016 236.58 63.584C235.492 65.12 233.876 66.32 231.732 67.184C229.588 68.048 226.932 68.48 223.764 68.48C221.172 68.48 218.868 68.32 216.852 68C214.868 67.68 213.14 67.216 211.668 66.608V60.512C212.66 60.992 213.78 61.408 215.028 61.76C216.276 62.08 217.54 62.336 218.82 62.528C220.1 62.688 221.284 62.768 222.372 62.768C225.412 62.768 227.604 62.336 228.948 61.472C230.324 60.576 231.012 59.328 231.012 57.728C231.012 56.096 230.02 54.912 228.036 54.176C226.052 53.408 223.38 53.024 220.02 53.024H216.804V47.36H219.684C222.404 47.36 224.516 47.184 226.02 46.832C227.524 46.48 228.58 45.968 229.188 45.296C229.796 44.624 230.1 43.824 230.1 42.896C230.1 41.712 229.572 40.784 228.516 40.112C227.492 39.408 225.94 39.056 223.86 39.056C222.1 39.056 220.436 39.312 218.868 39.824C217.332 40.336 215.892 41.008 214.548 41.84L211.38 36.992C212.564 36.224 213.812 35.568 215.124 35.024C216.468 34.448 217.94 34.016 219.54 33.728C221.14 33.408 222.916 33.248 224.868 33.248C227.46 33.248 229.668 33.616 231.492 34.352C233.316 35.088 234.708 36.096 235.668 37.376C236.66 38.624 237.156 40.08 237.156 41.744ZM265.593 68L263.097 59.84H250.617L248.121 68H240.297L252.393 33.584H261.273L273.417 68H265.593ZM258.873 45.776C258.713 45.232 258.505 44.544 258.249 43.712C257.993 42.88 257.737 42.032 257.481 41.168C257.225 40.304 257.017 39.552 256.857 38.912C256.697 39.552 256.473 40.352 256.185 41.312C255.929 42.24 255.673 43.136 255.417 44C255.193 44.832 255.017 45.424 254.889 45.776L252.441 53.744H261.369L258.873 45.776ZM292.254 68L283.998 41.12H283.806C283.838 41.76 283.886 42.72 283.95 44C284.014 45.28 284.078 46.656 284.142 48.128C284.206 49.568 284.238 50.88 284.238 52.064V68H277.758V33.728H287.646L295.758 59.936H295.902L304.494 33.728H314.382V68H307.614V51.776C307.614 50.688 307.63 49.44 307.662 48.032C307.726 46.624 307.774 45.296 307.806 44.048C307.87 42.768 307.918 41.808 307.95 41.168H307.758L298.926 68H292.254ZM342.767 68H323.039V33.728H342.767V39.68H330.287V47.216H341.903V53.168H330.287V62H342.767V68ZM360.842 33.728C365.258 33.728 368.474 34.688 370.49 36.608C372.538 38.496 373.562 41.104 373.562 44.432C373.562 45.936 373.338 47.376 372.89 48.752C372.442 50.096 371.69 51.312 370.634 52.4C369.61 53.456 368.25 54.288 366.554 54.896C364.858 55.504 362.762 55.808 360.266 55.808H357.146V68H349.898V33.728H360.842ZM360.458 39.68H357.146V49.856H359.546C360.922 49.856 362.106 49.68 363.098 49.328C364.09 48.976 364.858 48.416 365.402 47.648C365.946 46.88 366.218 45.888 366.218 44.672C366.218 42.976 365.754 41.728 364.826 40.928C363.898 40.096 362.442 39.68 360.458 39.68ZM428.231 62.24V77.984H421.223V68H380.039V33.728H387.287V61.952H397.943V33.728H405.239V61.952H415.895V33.728H423.143V62.24H428.231ZM433.523 33.728H440.051V50.288C440.051 51.088 440.035 51.984 440.003 52.976C439.971 53.968 439.939 54.944 439.907 55.904C439.875 56.832 439.843 57.648 439.811 58.352C439.779 59.024 439.747 59.488 439.715 59.744H439.859L455.699 33.728H464.387V68H457.907V51.536C457.907 50.672 457.923 49.728 457.955 48.704C457.987 47.648 458.019 46.64 458.051 45.68C458.115 44.72 458.163 43.888 458.195 43.184C458.259 42.448 458.307 41.968 458.339 41.744H458.147L442.259 68H433.523V33.728ZM500.975 68H492.719L480.287 50.624V68H473.039V33.728H480.287V50.336L492.575 33.728H500.303L487.823 50.192L500.975 68ZM526.265 68L523.769 59.84H511.289L508.793 68H500.969L513.065 33.584H521.945L534.089 68H526.265ZM519.545 45.776C519.385 45.232 519.177 44.544 518.921 43.712C518.665 42.88 518.409 42.032 518.153 41.168C517.897 40.304 517.689 39.552 517.529 38.912C517.369 39.552 517.145 40.352 516.857 41.312C516.601 42.24 516.345 43.136 516.089 44C515.865 44.832 515.689 45.424 515.561 45.776L513.113 53.744H522.041L519.545 45.776Z" fill="white"/>
</svg>
